<svg xmlns="http://www.w3.org/2000/svg" xmlns:xlink="http://www.w3.org/1999/xlink" width="456" zoomAndPan="magnify" viewBox="0 0 342 76.499998" height="102" preserveAspectRatio="xMidYMid meet" version="1.0"><defs><g/><clipPath id="47028a9152"><path d="M 216 20 L 233 20 L 233 67 L 216 67 Z M 216 20 " clip-rule="nonzero"/></clipPath><clipPath id="e4bfadb494"><path d="M 206.113281 38.714844 L 230.289062 20.042969 L 251.695312 47.757812 L 227.519531 66.433594 Z M 206.113281 38.714844 " clip-rule="nonzero"/></clipPath><clipPath id="685c64b2ea"><path d="M 206.113281 38.714844 L 230.289062 20.042969 L 251.695312 47.757812 L 227.519531 66.433594 Z M 206.113281 38.714844 " clip-rule="nonzero"/></clipPath></defs><g fill="#ff3131" fill-opacity="1"><g transform="translate(24.479883, 53.953397)"><g><path d="M 13.234375 -16.765625 C 13.234375 -15.421875 13.6875 -14.296875 14.59375 -13.390625 C 15.5 -12.484375 16.617188 -12.03125 17.953125 -12.03125 C 19.222656 -12.03125 20.300781 -12.4375 21.1875 -13.25 C 22.082031 -14.0625 22.582031 -15.085938 22.6875 -16.328125 L 35.578125 -16.328125 C 35.546875 -13.941406 35.054688 -11.707031 34.109375 -9.625 C 33.171875 -7.539062 31.898438 -5.703125 30.296875 -4.109375 C 28.691406 -2.515625 26.835938 -1.269531 24.734375 -0.375 C 22.628906 0.507812 20.382812 0.953125 18 0.953125 C 15.582031 0.953125 13.304688 0.492188 11.171875 -0.421875 C 9.035156 -1.347656 7.15625 -2.625 5.53125 -4.25 C 3.914062 -5.875 2.648438 -7.75 1.734375 -9.875 C 0.828125 -12.007812 0.375 -14.289062 0.375 -16.71875 C 0.375 -19.164062 0.828125 -21.453125 1.734375 -23.578125 C 2.648438 -25.710938 3.914062 -27.582031 5.53125 -29.1875 C 7.15625 -30.800781 9.035156 -32.066406 11.171875 -32.984375 C 13.304688 -33.910156 15.582031 -34.375 18 -34.375 C 20.382812 -34.375 22.628906 -33.925781 24.734375 -33.03125 C 26.835938 -32.144531 28.691406 -30.914062 30.296875 -29.34375 C 31.898438 -27.769531 33.171875 -25.9375 34.109375 -23.84375 C 35.054688 -21.757812 35.546875 -19.523438 35.578125 -17.140625 L 22.734375 -17.140625 C 22.628906 -18.378906 22.125 -19.421875 21.21875 -20.265625 C 20.3125 -21.109375 19.222656 -21.53125 17.953125 -21.53125 C 16.617188 -21.53125 15.5 -21.066406 14.59375 -20.140625 C 13.6875 -19.222656 13.234375 -18.097656 13.234375 -16.765625 Z M 13.234375 -16.765625 "/></g></g></g><g fill="#ff3131" fill-opacity="1"><g transform="translate(60.528493, 53.953397)"><g><path d="M 17.46875 -26.78125 L 17.46875 -15.5625 L 12.9375 -15.5625 C 12.457031 -15.5625 12.21875 -15.320312 12.21875 -14.84375 L 12.21875 0 L 0.484375 0 L 0.484375 -14.375 C 0.484375 -16.882812 1.019531 -19.0625 2.09375 -20.90625 C 3.175781 -22.757812 4.679688 -24.203125 6.609375 -25.234375 C 8.535156 -26.265625 10.742188 -26.78125 13.234375 -26.78125 Z M 17.46875 -26.78125 "/></g></g></g><g fill="#ff3131" fill-opacity="1"><g transform="translate(75.091077, 53.953397)"><g><path d="M 14.5625 0.765625 C 12.625 0.765625 10.796875 0.398438 9.078125 -0.328125 C 7.359375 -1.066406 5.84375 -2.085938 4.53125 -3.390625 C 3.226562 -4.691406 2.207031 -6.203125 1.46875 -7.921875 C 0.738281 -9.640625 0.375 -11.472656 0.375 -13.421875 C 0.375 -15.390625 0.738281 -17.222656 1.46875 -18.921875 C 2.207031 -20.628906 3.226562 -22.132812 4.53125 -23.4375 C 5.84375 -24.75 7.359375 -25.769531 9.078125 -26.5 C 10.796875 -27.226562 12.625 -27.59375 14.5625 -27.59375 C 16.539062 -27.59375 18.378906 -27.226562 20.078125 -26.5 C 21.785156 -25.769531 23.289062 -24.75 24.59375 -23.4375 C 25.894531 -22.132812 26.910156 -20.628906 27.640625 -18.921875 C 28.378906 -17.222656 28.75 -15.390625 28.75 -13.421875 C 28.75 -11.472656 28.378906 -9.640625 27.640625 -7.921875 C 26.910156 -6.203125 25.894531 -4.691406 24.59375 -3.390625 C 23.289062 -2.085938 21.785156 -1.066406 20.078125 -0.328125 C 18.378906 0.398438 16.539062 0.765625 14.5625 0.765625 Z M 14.5625 -15.859375 C 13.894531 -15.859375 13.320312 -15.617188 12.84375 -15.140625 C 12.363281 -14.660156 12.125 -14.085938 12.125 -13.421875 C 12.125 -12.753906 12.363281 -12.179688 12.84375 -11.703125 C 13.320312 -11.222656 13.894531 -10.984375 14.5625 -10.984375 C 15.226562 -10.984375 15.800781 -11.222656 16.28125 -11.703125 C 16.757812 -12.179688 17 -12.753906 17 -13.421875 C 17 -14.085938 16.757812 -14.660156 16.28125 -15.140625 C 15.800781 -15.617188 15.226562 -15.859375 14.5625 -15.859375 Z M 14.5625 -15.859375 "/></g></g></g><g fill="#ff3131" fill-opacity="1"><g transform="translate(101.494818, 53.953397)"><g><path d="M 20.34375 -26.78125 L 32.90625 -26.78125 L 36.625 -13.375 L 40.390625 -26.78125 L 52.953125 -26.78125 L 44.125 0 L 29.796875 0 C 29.035156 -2.164062 28.265625 -4.304688 27.484375 -6.421875 C 26.703125 -8.535156 25.910156 -10.660156 25.109375 -12.796875 L 24.453125 -12.796875 L 26.265625 -7.78125 L 23.546875 0 L 9.125 0 L 0.28125 -26.78125 L 12.84375 -26.78125 L 16.5625 -13.375 Z M 20.34375 -26.78125 "/></g></g></g><g fill="#ff3131" fill-opacity="1"><g transform="translate(151.819539, 53.953397)"><g><path d="M 28.703125 -33.421875 L 28.703125 -13.375 C 28.703125 -11.425781 28.332031 -9.59375 27.59375 -7.875 C 26.863281 -6.15625 25.84375 -4.644531 24.53125 -3.34375 C 23.226562 -2.039062 21.722656 -1.019531 20.015625 -0.28125 C 18.316406 0.445312 16.484375 0.8125 14.515625 0.8125 C 12.578125 0.8125 10.75 0.445312 9.03125 -0.28125 C 7.3125 -1.019531 5.804688 -2.039062 4.515625 -3.34375 C 3.222656 -4.644531 2.207031 -6.15625 1.46875 -7.875 C 0.738281 -9.59375 0.375 -11.425781 0.375 -13.375 C 0.375 -15.34375 0.738281 -17.175781 1.46875 -18.875 C 2.207031 -20.582031 3.222656 -22.085938 4.515625 -23.390625 C 5.804688 -24.703125 7.3125 -25.722656 9.03125 -26.453125 C 10.75 -27.179688 12.578125 -27.546875 14.515625 -27.546875 L 16.28125 -27.546875 L 16.28125 -15.8125 L 14.515625 -15.8125 C 13.847656 -15.8125 13.28125 -15.570312 12.8125 -15.09375 C 12.351562 -14.613281 12.125 -14.039062 12.125 -13.375 C 12.125 -12.707031 12.351562 -12.132812 12.8125 -11.65625 C 13.28125 -11.175781 13.847656 -10.9375 14.515625 -10.9375 C 15.210938 -10.9375 15.789062 -11.175781 16.25 -11.65625 C 16.71875 -12.132812 16.953125 -12.707031 16.953125 -13.375 L 16.953125 -33.421875 Z M 28.703125 -33.421875 "/></g></g></g><g fill="#3b2216" fill-opacity="1"><g transform="translate(181.003718, 53.953397)"><g><path d="M 0.53125 0 L 0.53125 -33.421875 L 14.234375 -33.421875 C 17.578125 -33.421875 20.367188 -33.078125 22.609375 -32.390625 C 24.847656 -31.710938 26.632812 -30.769531 27.96875 -29.5625 C 29.3125 -28.351562 30.269531 -26.957031 30.84375 -25.375 C 31.414062 -23.800781 31.6875 -22.140625 31.65625 -20.390625 C 31.65625 -19.242188 31.460938 -18.101562 31.078125 -16.96875 C 30.703125 -15.84375 30.125 -14.84375 29.34375 -13.96875 C 28.5625 -13.09375 27.550781 -12.445312 26.3125 -12.03125 L 32.859375 0 L 19.859375 0 L 13.796875 -12.65625 L 13.796875 -17.234375 L 16.5625 -17.234375 C 17.488281 -17.234375 18.164062 -17.476562 18.59375 -17.96875 C 19.03125 -18.46875 19.25 -19.003906 19.25 -19.578125 C 19.25 -20.179688 19.03125 -20.722656 18.59375 -21.203125 C 18.164062 -21.679688 17.488281 -21.921875 16.5625 -21.921875 L 12.9375 -21.921875 L 12.9375 0 Z M 0.53125 0 "/></g></g></g><g fill="#3b2216" fill-opacity="1"><g transform="translate(209.842502, 53.953397)"><g><path d="M 14.5625 0.765625 C 12.625 0.765625 10.796875 0.398438 9.078125 -0.328125 C 7.359375 -1.066406 5.84375 -2.085938 4.53125 -3.390625 C 3.226562 -4.691406 2.207031 -6.203125 1.46875 -7.921875 C 0.738281 -9.640625 0.375 -11.472656 0.375 -13.421875 C 0.375 -15.390625 0.738281 -17.222656 1.46875 -18.921875 C 2.207031 -20.628906 3.226562 -22.132812 4.53125 -23.4375 C 5.84375 -24.75 7.359375 -25.769531 9.078125 -26.5 C 10.796875 -27.226562 12.625 -27.59375 14.5625 -27.59375 C 16.539062 -27.59375 18.378906 -27.226562 20.078125 -26.5 C 21.785156 -25.769531 23.289062 -24.75 24.59375 -23.4375 C 25.894531 -22.132812 26.910156 -20.628906 27.640625 -18.921875 C 28.378906 -17.222656 28.75 -15.390625 28.75 -13.421875 C 28.75 -11.472656 28.378906 -9.640625 27.640625 -7.921875 C 26.910156 -6.203125 25.894531 -4.691406 24.59375 -3.390625 C 23.289062 -2.085938 21.785156 -1.066406 20.078125 -0.328125 C 18.378906 0.398438 16.539062 0.765625 14.5625 0.765625 Z M 14.5625 -15.859375 C 13.894531 -15.859375 13.320312 -15.617188 12.84375 -15.140625 C 12.363281 -14.660156 12.125 -14.085938 12.125 -13.421875 C 12.125 -12.753906 12.363281 -12.179688 12.84375 -11.703125 C 13.320312 -11.222656 13.894531 -10.984375 14.5625 -10.984375 C 15.226562 -10.984375 15.800781 -11.222656 16.28125 -11.703125 C 16.757812 -12.179688 17 -12.753906 17 -13.421875 C 17 -14.085938 16.757812 -14.660156 16.28125 -15.140625 C 15.800781 -15.617188 15.226562 -15.859375 14.5625 -15.859375 Z M 14.5625 -15.859375 "/></g></g></g><g fill="#3b2216" fill-opacity="1"><g transform="translate(238.872378, 53.953397)"><g><path d="M 14.28125 -27.59375 C 16.1875 -27.59375 17.96875 -27.234375 19.625 -26.515625 C 21.28125 -25.804688 22.742188 -24.820312 24.015625 -23.5625 C 25.285156 -22.300781 26.28125 -20.835938 27 -19.171875 C 27.71875 -17.503906 28.078125 -15.710938 28.078125 -13.796875 L 28.078125 0 L 16.609375 0 L 16.609375 -13.796875 C 16.609375 -14.429688 16.378906 -14.988281 15.921875 -15.46875 C 15.460938 -15.945312 14.914062 -16.1875 14.28125 -16.1875 C 13.613281 -16.1875 13.046875 -15.945312 12.578125 -15.46875 C 12.117188 -14.988281 11.890625 -14.429688 11.890625 -13.796875 C 11.890625 -13.160156 12.117188 -12.601562 12.578125 -12.125 C 13.046875 -11.644531 13.613281 -11.40625 14.28125 -11.40625 L 15.953125 -11.40625 L 15.953125 0 L 14.28125 0 C 12.363281 0 10.570312 -0.359375 8.90625 -1.078125 C 7.238281 -1.796875 5.773438 -2.789062 4.515625 -4.0625 C 3.253906 -5.332031 2.265625 -6.796875 1.546875 -8.453125 C 0.835938 -10.109375 0.484375 -11.890625 0.484375 -13.796875 C 0.484375 -15.710938 0.835938 -17.503906 1.546875 -19.171875 C 2.265625 -20.835938 3.253906 -22.300781 4.515625 -23.5625 C 5.773438 -24.820312 7.238281 -25.804688 8.90625 -26.515625 C 10.570312 -27.234375 12.363281 -27.59375 14.28125 -27.59375 Z M 14.28125 -27.59375 "/></g></g></g><g fill="#3b2216" fill-opacity="1"><g transform="translate(267.759018, 53.953397)"><g><path d="M 0.4375 0 L 0.4375 -11.125 L 6.15625 -11.125 C 6.09375 -11.25 6.019531 -11.367188 5.9375 -11.484375 C 5.863281 -11.597656 5.796875 -11.703125 5.734375 -11.796875 L 2.484375 -11.796875 C 1.367188 -13.390625 0.78125 -15.0625 0.71875 -16.8125 C 0.65625 -18.5625 0.972656 -20.101562 1.671875 -21.4375 C 2.460938 -22.96875 3.472656 -24.125 4.703125 -24.90625 C 5.929688 -25.6875 7.332031 -26.203125 8.90625 -26.453125 C 10.476562 -26.703125 12.171875 -26.828125 13.984375 -26.828125 L 27.59375 -26.828125 L 27.59375 -16.046875 L 13.984375 -16.046875 C 13.066406 -16.046875 12.359375 -15.71875 11.859375 -15.0625 C 11.367188 -14.414062 11.1875 -13.722656 11.3125 -12.984375 C 11.4375 -12.410156 11.726562 -11.882812 12.1875 -11.40625 C 12.65625 -10.9375 13.289062 -10.703125 14.09375 -10.703125 C 15.039062 -10.703125 15.722656 -11.007812 16.140625 -11.625 C 16.554688 -12.25 16.695312 -12.941406 16.5625 -13.703125 C 16.4375 -14.460938 16.007812 -15.019531 15.28125 -15.375 L 24.828125 -15.375 C 25.878906 -14.257812 26.59375 -13.085938 26.96875 -11.859375 C 27.351562 -10.640625 27.488281 -9.457031 27.375 -8.3125 C 27.269531 -7.164062 26.976562 -6.128906 26.5 -5.203125 C 25.707031 -3.671875 24.6875 -2.539062 23.4375 -1.8125 C 22.195312 -1.082031 20.78125 -0.597656 19.1875 -0.359375 C 17.601562 -0.117188 15.90625 0 14.09375 0 Z M 0.4375 0 "/></g></g></g><g fill="#3b2216" fill-opacity="1"><g transform="translate(296.168195, 53.953397)"><g><path d="M 12.984375 0 C 10.535156 0 8.363281 -0.453125 6.46875 -1.359375 C 4.570312 -2.265625 3.09375 -3.625 2.03125 -5.4375 C 0.96875 -7.257812 0.4375 -9.535156 0.4375 -12.265625 L 0.4375 -33.46875 L 12.171875 -33.46875 L 12.171875 -26.78125 L 20.34375 -26.78125 L 20.34375 -15.703125 L 12.171875 -15.703125 L 12.171875 -11.75 C 12.171875 -11.332031 12.378906 -11.125 12.796875 -11.125 L 20.34375 -11.125 L 20.34375 0 Z M 12.984375 0 "/></g></g></g><g clip-path="url(#47028a9152)"><g clip-path="url(#e4bfadb494)"><g clip-path="url(#685c64b2ea)"><path fill="#ffffff" d="M 230.023438 20.484375 C 230.007812 20.542969 229.976562 20.609375 229.972656 20.667969 C 229.964844 20.726562 229.992188 20.761719 229.992188 20.820312 C 229.996094 20.855469 229.960938 20.886719 229.972656 20.921875 C 229.980469 20.945312 230.027344 20.953125 230.035156 20.976562 C 230.054688 21.011719 230.070312 21.050781 230.089844 21.082031 C 230.144531 21.179688 230.152344 21.296875 230.210938 21.382812 C 230.253906 21.445312 230.234375 21.460938 230.226562 21.546875 C 230.222656 21.605469 230.253906 21.628906 230.257812 21.679688 C 230.265625 21.757812 230.207031 21.855469 230.214844 21.933594 C 230.214844 21.957031 230.214844 21.996094 230.222656 22.015625 C 230.234375 22.050781 230.246094 22.046875 230.269531 22.078125 C 230.296875 22.125 230.3125 22.175781 230.320312 22.234375 C 230.324219 22.273438 230.304688 22.320312 230.308594 22.363281 C 230.3125 22.40625 230.363281 22.441406 230.382812 22.476562 C 230.429688 22.550781 230.410156 22.613281 230.414062 22.699219 C 230.414062 22.738281 230.449219 22.773438 230.453125 22.816406 C 230.460938 22.890625 230.421875 23.007812 230.457031 23.066406 C 230.496094 23.132812 230.539062 23.105469 230.515625 23.203125 C 230.484375 23.339844 230.476562 23.46875 230.460938 23.601562 C 230.449219 23.695312 230.398438 23.789062 230.402344 23.878906 C 230.402344 23.953125 230.414062 24 230.390625 24.082031 C 230.355469 24.207031 230.371094 24.269531 230.425781 24.359375 C 230.460938 24.417969 230.460938 24.46875 230.480469 24.539062 C 230.515625 24.648438 230.59375 24.742188 230.625 24.855469 C 230.636719 24.90625 230.628906 24.949219 230.632812 25 C 230.640625 25.085938 230.746094 25.125 230.757812 25.207031 C 230.773438 25.28125 230.683594 25.382812 230.695312 25.453125 C 230.703125 25.519531 230.78125 25.535156 230.8125 25.589844 C 230.894531 25.734375 230.859375 25.886719 230.855469 26.050781 C 230.851562 26.226562 230.902344 26.390625 230.953125 26.542969 C 230.988281 26.644531 231.078125 26.71875 231.070312 26.832031 C 231.058594 26.9375 231.09375 27.015625 231.097656 27.117188 C 231.105469 27.253906 231.039062 27.433594 230.871094 27.574219 C 230.738281 27.6875 230.460938 27.808594 230.417969 27.941406 C 230.316406 27.960938 230.160156 28.050781 230.078125 28.101562 C 230.035156 28.132812 230.003906 28.171875 229.953125 28.199219 C 229.898438 28.234375 229.828125 28.25 229.777344 28.28125 C 229.691406 28.332031 229.675781 28.367188 229.613281 28.429688 C 229.539062 28.496094 229.4375 28.539062 229.359375 28.601562 C 229.277344 28.671875 229.195312 28.753906 229.128906 28.828125 C 229.042969 28.925781 228.9375 29.175781 228.789062 29.25 C 228.707031 29.289062 228.535156 29.296875 228.449219 29.3125 C 228.214844 29.351562 228.003906 29.386719 227.773438 29.460938 C 227.652344 29.5 227.527344 29.542969 227.40625 29.574219 C 227.34375 29.59375 227.292969 29.589844 227.230469 29.613281 C 227.199219 29.625 227.101562 29.691406 227.066406 29.707031 C 227.027344 29.726562 226.976562 29.726562 226.9375 29.75 C 226.890625 29.777344 226.867188 29.816406 226.824219 29.847656 C 226.734375 29.902344 226.605469 29.957031 226.503906 30.003906 C 226.25 30.113281 226.082031 30.242188 226.03125 30.429688 C 225.992188 30.578125 225.992188 30.722656 225.925781 30.878906 C 225.875 30.988281 225.835938 30.984375 225.695312 31.046875 C 225.597656 31.089844 225.5 31.148438 225.402344 31.191406 C 225.242188 31.265625 225.117188 31.320312 225.042969 31.441406 C 224.949219 31.597656 225.101562 31.648438 225.226562 31.710938 C 225.441406 31.820312 225.601562 31.933594 225.882812 31.984375 C 225.972656 32 226.078125 32.007812 226.171875 32.015625 C 226.453125 32.039062 226.359375 32.046875 226.453125 32.210938 C 226.511719 32.308594 226.660156 32.355469 226.738281 32.449219 C 226.820312 32.554688 226.867188 32.621094 226.980469 32.695312 C 227.210938 32.839844 227.183594 33.035156 227.097656 33.320312 C 227.027344 33.554688 227.035156 33.757812 226.730469 33.976562 C 226.488281 34.152344 226.1875 34.316406 225.933594 34.492188 C 225.699219 34.652344 225.554688 34.789062 225.277344 34.917969 C 225.132812 34.984375 224.992188 35.03125 224.855469 35.113281 C 224.695312 35.203125 224.507812 35.300781 224.359375 35.390625 C 224.148438 35.519531 224.238281 35.511719 224.164062 35.667969 C 224.035156 35.9375 223.695312 35.933594 223.375 36.085938 C 223.109375 36.210938 222.796875 36.40625 222.800781 36.597656 C 222.804688 36.871094 223.230469 36.886719 223.488281 36.984375 C 223.695312 37.0625 223.90625 37.269531 223.988281 37.421875 C 224.136719 37.699219 224.195312 38.054688 224.179688 38.398438 C 224.171875 38.53125 224.136719 38.667969 224.175781 38.785156 C 224.1875 38.832031 224.269531 38.902344 224.273438 38.949219 C 224.285156 39.074219 224.179688 39.210938 224.035156 39.34375 C 223.554688 39.78125 222.785156 40.148438 222.617188 40.636719 C 222.480469 41.042969 222.101562 41.433594 221.917969 41.828125 C 221.914062 41.839844 221.90625 41.851562 221.902344 41.863281 C 221.859375 41.832031 221.816406 41.796875 221.773438 41.769531 C 221.632812 41.683594 221.558594 41.535156 221.460938 41.398438 C 221.363281 41.269531 221.253906 41.089844 221.144531 40.984375 C 221.03125 40.867188 220.839844 40.882812 220.742188 40.726562 C 220.425781 41.042969 220.449219 40.707031 220.269531 40.660156 C 220.382812 40.472656 220.703125 40.304688 220.726562 40.082031 C 220.75 39.839844 220.46875 39.785156 220.382812 39.6875 C 220.316406 39.613281 220.320312 39.5 220.269531 39.414062 C 220.210938 39.316406 220.132812 39.320312 220.035156 39.28125 C 220 39.269531 219.90625 39.238281 219.878906 39.199219 C 219.804688 38.972656 219.574219 38.972656 219.460938 38.777344 C 219.410156 38.695312 219.382812 38.636719 219.3125 38.574219 C 219.125 38.398438 219.011719 38.203125 218.914062 37.921875 C 218.863281 37.78125 218.808594 37.710938 218.695312 37.652344 C 218.5625 37.582031 218.527344 37.476562 218.457031 37.320312 C 218.410156 37.214844 218.382812 37.269531 218.277344 37.265625 C 218.21875 37.261719 218.1875 37.226562 218.136719 37.207031 C 218.085938 37.1875 218.058594 37.203125 218.011719 37.167969 C 217.980469 37.140625 217.996094 37.097656 217.949219 37.085938 C 217.929688 37.082031 217.851562 37.101562 217.828125 37.101562 C 217.804688 37.101562 217.785156 37.082031 217.757812 37.082031 C 217.664062 37.089844 217.558594 37.230469 217.484375 37.203125 C 217.46875 37.199219 217.460938 37.121094 217.441406 37.101562 C 217.410156 37.070312 217.320312 37.074219 217.277344 37.058594 C 217.167969 37.03125 217.09375 36.964844 216.996094 36.925781 C 216.898438 36.886719 216.742188 36.945312 216.628906 36.949219 C 216.535156 36.953125 216.46875 36.941406 216.371094 36.96875 C 216.289062 36.992188 216.222656 37.035156 216.152344 37.007812 C 216.203125 37.015625 216.207031 37.082031 216.246094 37.101562 C 216.296875 37.128906 216.371094 37.085938 216.425781 37.105469 C 216.539062 37.148438 216.554688 37.273438 216.722656 37.195312 C 216.785156 37.167969 216.820312 37.121094 216.878906 37.105469 C 216.980469 37.078125 217.121094 37.144531 217.1875 37.191406 C 217.25 37.238281 217.285156 37.292969 217.378906 37.277344 C 217.4375 37.265625 217.464844 37.210938 217.511719 37.238281 C 217.554688 37.261719 217.574219 37.355469 217.632812 37.382812 C 217.714844 37.421875 217.804688 37.433594 217.886719 37.480469 C 217.980469 37.535156 218.042969 37.519531 218.148438 37.519531 C 218.285156 37.519531 218.292969 37.726562 218.347656 37.851562 C 218.398438 37.960938 218.484375 38.015625 218.53125 38.125 C 218.582031 38.242188 218.609375 38.402344 218.679688 38.5 C 218.722656 38.5625 218.769531 38.617188 218.8125 38.679688 C 218.855469 38.742188 218.902344 38.710938 218.957031 38.738281 C 219.125 38.824219 219.195312 39.28125 219.273438 39.484375 C 219.359375 39.710938 219.441406 39.9375 219.527344 40.160156 C 219.5625 40.25 219.640625 40.339844 219.578125 40.492188 C 219.523438 40.621094 219.40625 40.679688 219.332031 40.792969 C 219.480469 40.71875 219.488281 40.914062 219.601562 40.929688 C 219.65625 40.925781 219.710938 40.914062 219.773438 40.890625 C 219.820312 40.902344 219.84375 40.945312 219.847656 41.015625 C 219.882812 41.042969 219.890625 41.027344 219.917969 41.042969 C 220.101562 41.164062 220.25 41.316406 220.464844 41.378906 C 220.578125 41.414062 220.609375 41.589844 220.707031 41.621094 C 220.734375 41.628906 220.785156 41.597656 220.816406 41.601562 C 220.878906 41.609375 220.929688 41.671875 220.976562 41.710938 C 221.019531 41.75 221.054688 41.824219 221.101562 41.851562 C 221.132812 41.871094 221.207031 41.851562 221.242188 41.859375 C 221.332031 41.886719 221.414062 41.933594 221.460938 42.027344 C 221.664062 42.460938 221.816406 42.972656 221.992188 43.441406 C 222.023438 43.53125 222.066406 43.605469 222.113281 43.671875 C 222.128906 44.097656 222.109375 44.542969 222.03125 44.933594 C 221.980469 45.179688 221.847656 45.542969 221.703125 45.730469 C 221.527344 45.960938 221.222656 46.148438 221.238281 46.527344 C 221.25 46.789062 221.484375 46.941406 221.679688 47.011719 C 221.914062 47.09375 222.15625 46.964844 222.261719 47.285156 C 222.324219 47.472656 222.261719 47.492188 222.417969 47.589844 C 222.527344 47.660156 222.671875 47.714844 222.789062 47.78125 C 222.890625 47.84375 222.992188 47.851562 223.097656 47.886719 C 223.304688 47.957031 223.414062 48.089844 223.589844 48.21875 C 223.78125 48.363281 224.003906 48.472656 224.1875 48.621094 C 224.417969 48.808594 224.425781 49.089844 224.488281 49.386719 C 224.566406 49.746094 224.597656 50 224.445312 50.292969 C 224.367188 50.433594 224.339844 50.546875 224.289062 50.71875 C 224.238281 50.878906 224.136719 51 224.101562 51.160156 C 224.042969 51.421875 224.113281 51.394531 223.914062 51.535156 C 223.847656 51.585938 223.773438 51.632812 223.710938 51.6875 C 223.511719 51.867188 223.40625 52.085938 223.261719 52.320312 C 223.175781 52.453125 223.070312 52.582031 223.148438 52.761719 C 223.207031 52.902344 223.300781 52.929688 223.417969 52.964844 C 223.492188 52.988281 223.5625 53.03125 223.632812 53.054688 C 223.738281 53.085938 223.765625 53.066406 223.804688 53.195312 C 223.867188 53.382812 223.875 53.582031 223.910156 53.773438 C 223.957031 54.007812 224.085938 54.125 224.273438 54.179688 C 224.347656 54.203125 224.441406 54.226562 224.507812 54.269531 C 224.539062 54.292969 224.558594 54.339844 224.597656 54.359375 C 224.625 54.375 224.660156 54.359375 224.6875 54.367188 C 224.714844 54.375 224.789062 54.429688 224.8125 54.4375 C 224.859375 54.445312 224.894531 54.417969 224.9375 54.417969 C 225.023438 54.417969 225.117188 54.429688 225.203125 54.4375 C 225.375 54.449219 225.523438 54.417969 225.695312 54.382812 C 225.757812 54.367188 225.878906 54.3125 225.9375 54.335938 C 226.046875 54.378906 226.140625 54.683594 226.207031 54.785156 C 226.257812 54.859375 226.320312 54.945312 226.386719 55.003906 C 226.445312 55.0625 226.519531 55.085938 226.574219 55.148438 C 226.621094 55.207031 226.636719 55.253906 226.699219 55.289062 C 226.738281 55.3125 226.789062 55.308594 226.832031 55.332031 C 226.867188 55.351562 226.890625 55.394531 226.925781 55.417969 C 226.988281 55.457031 227.101562 55.519531 227.175781 55.507812 C 227.214844 55.675781 227.417969 55.734375 227.519531 55.839844 C 227.648438 55.972656 227.707031 56.195312 227.710938 56.382812 C 227.710938 56.523438 227.691406 56.640625 227.707031 56.785156 C 227.71875 56.9375 227.660156 57.074219 227.640625 57.230469 C 227.613281 57.457031 227.589844 57.703125 227.601562 57.9375 C 227.617188 58.167969 227.652344 58.363281 227.601562 58.59375 C 227.582031 58.683594 227.527344 58.734375 227.523438 58.824219 C 227.523438 58.929688 227.589844 59.03125 227.585938 59.140625 C 227.582031 59.257812 227.511719 59.351562 227.511719 59.472656 C 227.511719 59.542969 227.519531 59.601562 227.511719 59.679688 C 227.496094 59.84375 227.449219 60.003906 227.429688 60.167969 C 227.417969 60.273438 227.421875 60.339844 227.402344 60.4375 C 227.371094 60.578125 227.359375 60.675781 227.394531 60.828125 C 227.414062 60.933594 227.410156 61.003906 227.414062 61.105469 C 227.417969 61.230469 227.460938 61.34375 227.472656 61.464844 C 227.492188 61.640625 227.507812 61.8125 227.539062 61.992188 C 227.558594 62.113281 227.527344 62.097656 227.503906 62.203125 C 227.480469 62.296875 227.515625 62.445312 227.515625 62.550781 C 227.515625 62.609375 227.492188 62.671875 227.496094 62.722656 C 227.496094 62.84375 227.515625 62.921875 227.488281 63.042969 C 227.472656 63.097656 227.441406 63.167969 227.441406 63.226562 C 227.441406 63.285156 227.457031 63.347656 227.457031 63.402344 C 227.453125 63.480469 227.449219 63.558594 227.429688 63.636719 C 227.417969 63.6875 227.40625 63.683594 227.402344 63.742188 C 227.398438 63.769531 227.402344 63.824219 227.402344 63.855469 C 227.398438 63.96875 227.449219 64.078125 227.445312 64.1875 C 227.445312 64.257812 227.425781 64.304688 227.433594 64.378906 C 227.441406 64.496094 227.457031 64.511719 227.433594 64.613281 C 227.394531 64.757812 227.398438 64.921875 227.363281 65.074219 C 227.351562 65.128906 227.34375 65.183594 227.332031 65.242188 C 227.328125 65.277344 227.296875 65.304688 227.292969 65.339844 C 227.285156 65.394531 227.3125 65.421875 227.3125 65.472656 C 227.3125 65.554688 227.296875 65.609375 227.304688 65.691406 C 227.3125 65.765625 227.339844 65.847656 227.355469 65.921875 C 227.382812 66.050781 227.414062 66.175781 227.433594 66.304688 C 227.453125 66.0625 227.417969 65.828125 227.460938 65.585938 C 227.496094 65.382812 227.492188 65.191406 227.492188 64.972656 C 227.496094 64.734375 227.53125 64.523438 227.511719 64.285156 C 227.503906 64.164062 227.535156 64.078125 227.550781 63.964844 C 227.570312 63.828125 227.542969 63.710938 227.539062 63.570312 C 227.535156 63.4375 227.542969 63.300781 227.542969 63.167969 C 227.542969 63 227.59375 62.847656 227.582031 62.679688 C 227.578125 62.5625 227.542969 62.484375 227.5625 62.367188 C 227.589844 62.238281 227.613281 62.183594 227.609375 62.039062 C 227.597656 61.804688 227.664062 61.609375 227.671875 61.382812 C 227.683594 61.160156 227.691406 60.949219 227.726562 60.730469 C 227.742188 60.636719 227.714844 60.542969 227.726562 60.453125 C 227.742188 60.390625 227.761719 60.335938 227.78125 60.277344 C 227.796875 60.199219 227.800781 60.121094 227.792969 60.039062 C 227.796875 59.886719 227.792969 59.734375 227.796875 59.582031 C 227.800781 59.445312 227.867188 59.335938 227.863281 59.203125 C 227.855469 59.101562 227.828125 59.0625 227.84375 58.972656 C 227.855469 58.90625 227.867188 58.867188 227.875 58.800781 C 227.886719 58.65625 227.890625 58.390625 227.964844 58.285156 C 228.011719 58.226562 228.023438 58.246094 228.042969 58.164062 C 228.082031 58.007812 228 57.804688 228.042969 57.632812 C 228.082031 57.476562 228.082031 57.417969 228.050781 57.261719 C 228.019531 57.09375 228.070312 56.949219 228.058594 56.78125 C 228.035156 56.730469 228.027344 56.675781 228.027344 56.621094 C 228.050781 56.59375 228.070312 56.5625 228.09375 56.53125 C 228.105469 56.480469 228.082031 56.296875 228.078125 56.242188 C 228.074219 56.109375 228.09375 56.066406 228.117188 55.941406 C 228.140625 55.832031 228.117188 55.71875 228.121094 55.605469 C 228.226562 55.589844 228.214844 55.453125 228.257812 55.367188 C 228.296875 55.292969 228.417969 55.207031 228.351562 55.109375 C 228.320312 55.066406 228.269531 55.082031 228.230469 55.054688 C 228.195312 55.035156 228.179688 54.992188 228.152344 54.964844 C 228.074219 54.894531 228.015625 54.894531 227.925781 54.835938 C 227.855469 54.789062 227.800781 54.738281 227.71875 54.703125 C 227.640625 54.664062 227.558594 54.628906 227.472656 54.601562 C 227.386719 54.578125 227.316406 54.589844 227.234375 54.570312 C 227.175781 54.550781 227.15625 54.523438 227.109375 54.488281 C 227.015625 54.410156 227.058594 54.417969 226.957031 54.414062 C 226.890625 54.410156 226.886719 54.40625 226.835938 54.382812 C 226.792969 54.363281 226.75 54.3125 226.707031 54.289062 C 226.667969 54.269531 226.613281 54.265625 226.578125 54.242188 C 226.527344 54.203125 226.5 54.140625 226.441406 54.101562 C 226.28125 54 226.121094 53.910156 225.945312 53.839844 C 225.785156 53.777344 225.59375 53.738281 225.449219 53.632812 C 225.414062 53.605469 225.386719 53.578125 225.347656 53.554688 C 225.257812 53.5 225.164062 53.449219 225.074219 53.394531 C 225.042969 53.375 225.007812 53.363281 224.976562 53.34375 C 224.929688 53.316406 224.886719 53.265625 224.839844 53.25 C 224.824219 53.242188 224.808594 53.238281 224.792969 53.238281 C 224.976562 53.140625 224.898438 52.761719 224.957031 52.566406 C 225.023438 52.441406 225.078125 52.308594 225.121094 52.171875 C 225.128906 52 225.144531 51.832031 225.175781 51.667969 C 225.226562 51.464844 225.3125 51.339844 225.351562 51.136719 C 225.394531 50.921875 225.53125 50.710938 225.558594 50.503906 C 225.578125 50.367188 225.515625 50.269531 225.558594 50.136719 C 225.609375 49.984375 225.699219 49.964844 225.730469 49.777344 C 225.753906 49.628906 225.730469 49.484375 225.707031 49.335938 C 225.65625 49.035156 225.597656 48.6875 225.507812 48.394531 C 225.429688 48.132812 225.242188 47.890625 225.078125 47.683594 C 224.871094 47.417969 224.75 47.054688 224.542969 46.804688 C 224.480469 46.730469 224.359375 46.722656 224.308594 46.644531 C 224.230469 46.519531 224.253906 46.363281 224.191406 46.234375 C 223.96875 46.261719 223.519531 46 223.339844 45.839844 C 223.148438 45.667969 223.253906 45.554688 223.277344 45.335938 C 223.300781 45.109375 223.304688 44.871094 223.304688 44.644531 C 223.3125 44.195312 223.425781 43.835938 223.328125 43.382812 C 223.289062 43.210938 223.257812 43.046875 223.230469 42.882812 C 223.285156 42.808594 223.332031 42.730469 223.367188 42.648438 C 223.570312 42.558594 223.761719 42.597656 223.972656 42.519531 C 224.191406 42.1875 224.074219 41.855469 224.289062 41.519531 C 224.46875 41.464844 224.617188 41.464844 224.789062 41.390625 C 224.945312 41.320312 225.066406 41.210938 225.257812 41.144531 C 225.589844 41.023438 225.6875 41.074219 225.785156 40.839844 C 225.855469 40.671875 225.921875 40.457031 225.925781 40.300781 C 225.929688 40.039062 225.769531 39.832031 225.777344 39.574219 C 225.777344 39.511719 225.851562 39.433594 225.847656 39.375 C 225.847656 39.234375 225.761719 39.300781 225.71875 39.207031 C 225.671875 39.105469 225.726562 39 225.71875 38.878906 C 225.695312 38.613281 225.777344 38.335938 225.867188 38.027344 C 225.972656 37.664062 225.796875 37.453125 225.761719 37.140625 C 225.742188 36.980469 225.726562 36.808594 225.679688 36.660156 C 225.632812 36.511719 225.480469 36.472656 225.734375 36.277344 C 225.972656 36.09375 226.574219 35.734375 226.882812 35.671875 C 226.960938 35.554688 226.917969 35.453125 227.019531 35.335938 C 227.085938 35.257812 227.25 35.207031 227.332031 35.128906 C 227.597656 34.875 227.742188 34.570312 228.011719 34.300781 C 228.226562 34.089844 228.472656 33.847656 228.5625 33.632812 C 228.664062 33.390625 228.726562 33.117188 228.777344 32.886719 C 228.800781 32.769531 228.824219 32.660156 228.78125 32.5625 C 228.730469 32.441406 228.601562 32.460938 228.527344 32.375 C 228.457031 32.296875 228.535156 32.207031 228.5 32.113281 C 228.449219 31.976562 228.25 31.882812 228.179688 31.746094 C 228.113281 31.617188 227.988281 31.558594 227.902344 31.4375 C 227.851562 31.332031 227.816406 31.21875 227.796875 31.101562 C 227.726562 31.019531 227.644531 30.945312 227.542969 30.882812 C 227.453125 30.769531 227.539062 30.46875 227.277344 30.46875 C 227.296875 30.464844 227.320312 30.457031 227.34375 30.445312 C 227.40625 30.414062 227.460938 30.359375 227.523438 30.324219 C 227.566406 30.296875 227.613281 30.273438 227.65625 30.25 C 227.777344 30.175781 227.902344 30.105469 228.023438 30.03125 C 228.074219 30 228.109375 29.972656 228.15625 29.9375 C 228.347656 29.804688 228.609375 29.707031 228.828125 29.597656 C 229.066406 29.484375 229.28125 29.355469 229.492188 29.222656 C 229.570312 29.171875 229.605469 29.117188 229.675781 29.070312 C 229.71875 29.039062 229.796875 29.015625 229.847656 28.988281 C 229.90625 28.957031 229.960938 28.902344 230.019531 28.871094 C 230.089844 28.835938 230.09375 28.832031 230.183594 28.804688 C 230.324219 28.757812 230.265625 28.785156 230.390625 28.691406 C 230.453125 28.648438 230.476562 28.621094 230.554688 28.585938 C 230.667969 28.539062 230.765625 28.523438 230.882812 28.46875 C 231 28.417969 231.105469 28.363281 231.214844 28.304688 C 231.328125 28.246094 231.398438 28.191406 231.492188 28.128906 C 231.609375 28.054688 231.695312 28.03125 231.792969 27.949219 C 231.832031 27.921875 231.851562 27.886719 231.898438 27.855469 C 231.949219 27.824219 232.023438 27.816406 232.058594 27.773438 C 232.148438 27.679688 231.972656 27.664062 231.917969 27.625 C 231.851562 27.582031 231.859375 27.480469 231.710938 27.511719 C 231.703125 27.429688 231.726562 27.339844 231.6875 27.269531 C 231.644531 27.195312 231.617188 27.167969 231.617188 27.074219 C 231.617188 27.035156 231.636719 26.894531 231.617188 26.863281 C 231.585938 26.847656 231.554688 26.835938 231.523438 26.824219 C 231.519531 26.785156 231.527344 26.742188 231.550781 26.699219 C 231.5625 26.574219 231.480469 26.492188 231.515625 26.359375 C 231.550781 26.238281 231.546875 26.195312 231.480469 26.101562 C 231.410156 25.996094 231.511719 25.820312 231.449219 25.722656 C 231.414062 25.671875 231.398438 25.691406 231.335938 25.667969 C 231.222656 25.625 231.203125 25.4375 231.175781 25.339844 C 231.164062 25.292969 231.148438 25.269531 231.125 25.226562 C 231.097656 25.167969 231.132812 25.132812 231.132812 25.054688 C 231.136719 24.957031 231.039062 24.90625 231.023438 24.8125 C 231.007812 24.707031 231 24.597656 230.988281 24.488281 C 230.992188 24.429688 230.984375 24.375 230.960938 24.324219 C 230.925781 24.292969 230.894531 24.257812 230.871094 24.222656 C 230.851562 24.160156 230.882812 24.085938 230.855469 24.023438 C 230.792969 23.882812 230.769531 23.738281 230.742188 23.582031 C 230.714844 23.425781 230.613281 23.3125 230.613281 23.144531 C 230.609375 23.039062 230.570312 23.011719 230.53125 22.925781 C 230.492188 22.851562 230.535156 22.78125 230.539062 22.695312 C 230.542969 22.574219 230.460938 22.488281 230.449219 22.367188 C 230.441406 22.273438 230.425781 22.179688 230.421875 22.082031 C 230.421875 21.980469 230.449219 21.886719 230.414062 21.796875 C 230.382812 21.722656 230.339844 21.675781 230.34375 21.585938 C 230.351562 21.410156 230.292969 21.273438 230.273438 21.105469 C 230.253906 20.953125 230.253906 20.8125 230.191406 20.679688 C 230.117188 20.527344 230.148438 20.347656 230.109375 20.183594 C 230.085938 20.28125 230.054688 20.382812 230.023438 20.484375 " fill-opacity="1" fill-rule="nonzero"/></g></g></g></svg>